<svg width="199" height="32" viewBox="0 0 199 32" fill="none" xmlns="http://www.w3.org/2000/svg">
<g clip-path="url(#clip0_1861_1621)">
<path d="M31.3286 25.6C36.6252 25.6 40.919 21.3019 40.919 16C40.919 10.6981 36.6252 6.4 31.3286 6.4C26.3577 6.4 22.2701 10.1857 21.7862 15.034C19.8268 14.1469 17.71 13.6167 15.5422 13.4772C16.7508 5.83929 23.3584 0 31.3286 0C40.1563 0 47.3125 7.16345 47.3125 16C47.3125 24.5142 40.6687 31.4752 32.2876 31.9717V32H21.7537V30.6036C21.7537 28.7896 21.0064 27.0257 19.6367 25.7069C18.263 24.3843 16.3762 23.6218 14.3855 23.6218C12.3949 23.6218 10.5081 24.3843 9.13442 25.7069C7.76471 27.0257 7.01734 28.7896 7.01734 30.6036V32H0V30.5694C0 26.8297 1.55047 23.2725 4.26244 20.6718C6.88765 18.1544 10.3933 16.7282 14.0428 16.644C14.1569 16.6414 14.2712 16.64 14.3855 16.64C14.4741 16.64 14.5626 16.6408 14.651 16.6424C18.3282 16.7081 21.8649 18.1366 24.5086 20.6718C25.9732 22.0762 27.099 23.7596 27.8248 25.6H31.3286Z" fill="#00AAAF"/>
<path d="M17.3242 27.9395C18.1035 28.6179 18.5414 29.538 18.5414 30.4975V31.9999H10.2297V30.4975C10.2297 29.538 10.6676 28.6179 11.4469 27.9395C12.2263 27.261 13.2834 26.8799 14.3856 26.8799C15.4877 26.8799 16.5448 27.261 17.3242 27.9395Z" fill="#00AAAF"/>
<path d="M34.9902 14.4293C33.8346 14.4293 32.8978 13.4916 32.8978 12.3348V11.8111C32.8978 10.9436 32.1952 10.2402 31.3284 10.2402C30.4617 10.2402 29.7591 10.9435 29.7591 11.8111V12.3348C29.7591 13.4916 28.8223 14.4293 27.6667 14.4293H27.1435C26.2769 14.4293 25.5742 15.1326 25.5742 16.0002C25.5742 16.8678 26.2769 17.5711 27.1435 17.5711H27.6667C28.8223 17.5711 29.7591 18.5089 29.7591 19.6657V20.1894C29.7591 21.057 30.4617 21.7602 31.3284 21.7602C32.1952 21.7602 32.8978 21.057 32.8978 20.1894V19.6657C32.8978 18.5089 33.8346 17.5711 34.9902 17.5711H35.5134C36.3801 17.5711 37.0827 16.8678 37.0827 16.0002C37.0827 15.1326 36.3801 14.4293 35.5134 14.4293H34.9902Z" fill="#00AAAF"/>
<path d="M8.95108 2.56003C8.95108 3.97386 10.0961 5.11999 11.5085 5.11999H12.1478C13.2071 5.11999 14.0659 5.97961 14.0659 7.03999C14.0659 8.1004 13.2071 8.96 12.1478 8.96H11.5085C10.0961 8.96 8.95108 10.1062 8.95108 11.5199V12.16C8.95108 13.2204 8.09235 14.08 7.03302 14.08C5.9737 14.08 5.11495 13.2204 5.11495 12.16V11.52C5.11495 10.1062 3.96995 8.96 2.55752 8.96H1.91807C0.858753 8.96 0 8.1004 0 7.03999C0 5.97961 0.858753 5.11999 1.91807 5.11999H2.55753C3.96995 5.11999 5.11495 3.97385 5.11495 2.56V1.92C5.11495 0.859616 5.9737 0 7.03302 0C8.09235 0 8.95108 0.859616 8.95108 1.92V2.56003Z" fill="#00AAAF"/>
<path d="M191.23 10.5908C196.033 10.5908 198.35 13.9491 198.35 17.8391V25.1433H193.324V18.7067C193.324 16.9435 192.682 15.4883 190.839 15.4883C188.996 15.4883 188.382 16.9435 188.382 18.7067V25.1433H183.356V18.7067C183.356 16.9435 182.741 15.4883 180.898 15.4883C179.055 15.4883 178.413 16.9435 178.413 18.7067V25.1433H173.386V17.8391C173.386 13.9491 175.704 10.5908 180.507 10.5908C183.132 10.5908 185.031 11.6263 185.896 13.3335C186.818 11.6263 188.829 10.5908 191.23 10.5908Z" fill="#121212"/>
<path d="M164.355 20.6654C165.975 20.6654 166.672 19.1822 166.672 17.4191V11.1504H171.699V18.0348C171.699 22.1487 169.297 25.563 164.355 25.563C159.413 25.563 157.011 22.1487 157.011 18.0348V11.1504H162.037V17.4191C162.037 19.1822 162.736 20.6654 164.355 20.6654Z" fill="#121212"/>
<path d="M149.62 25.5914C146.465 25.5914 144.427 24.5 143.226 22.373L146.856 20.3301C147.358 21.2257 148.113 21.6734 149.369 21.6734C150.402 21.6734 150.877 21.3096 150.877 20.8618C150.877 19.1547 143.505 20.8898 143.505 15.4606C143.505 12.83 145.739 10.7031 149.537 10.7031C152.859 10.7031 154.675 12.3262 155.484 13.8934L151.855 15.9644C151.547 15.1248 150.597 14.621 149.648 14.621C148.922 14.621 148.531 14.9289 148.531 15.3487C148.531 17.0838 155.903 15.4886 155.903 20.7499C155.903 23.6884 153.027 25.5914 149.62 25.5914Z" fill="#121212"/>
<path d="M132.06 31.5807H127.034V18.1197C127.034 13.8378 130.245 10.7314 134.713 10.7314C139.068 10.7314 142.391 14.0618 142.391 18.1197C142.391 22.5974 139.432 25.5638 134.992 25.5638C133.959 25.5638 132.926 25.256 132.06 24.7802V31.5807ZM134.713 20.8342C136.304 20.8342 137.365 19.6029 137.365 18.1477C137.365 16.6644 136.304 15.461 134.713 15.461C133.121 15.461 132.06 16.6644 132.06 18.1477C132.06 19.6029 133.121 20.8342 134.713 20.8342Z" fill="#121212"/>
<path d="M121.999 9.66791C120.351 9.66791 118.983 8.29663 118.983 6.64549C118.983 4.99434 120.351 3.62305 121.999 3.62305C123.646 3.62305 125.014 4.99434 125.014 6.64549C125.014 8.29663 123.646 9.66791 121.999 9.66791ZM119.486 11.1512H124.512V25.1439H119.486V11.1512Z" fill="#121212"/>
<path d="M109.842 25.5634C105.486 25.5634 102.163 22.2051 102.163 18.1193C102.163 14.0614 105.486 10.7031 109.842 10.7031C114.198 10.7031 117.521 14.0614 117.521 18.1193C117.521 22.2051 114.198 25.5634 109.842 25.5634ZM109.842 20.8338C111.434 20.8338 112.495 19.6025 112.495 18.1473C112.495 16.664 111.434 15.4326 109.842 15.4326C108.25 15.4326 107.189 16.664 107.189 18.1473C107.189 19.6025 108.25 20.8338 109.842 20.8338Z" fill="#121212"/>
<path d="M92.6726 32.0005C89.2096 32.0005 86.697 30.4613 85.4119 27.7187L89.5725 25.4798C90.0192 26.4314 90.8576 27.4109 92.5886 27.4109C94.4036 27.4109 95.604 26.2634 95.7439 24.2485C95.0742 24.8362 94.0128 25.284 92.4208 25.284C88.5399 25.284 85.4119 22.2895 85.4119 18.0917C85.4119 14.0338 88.7349 10.7314 93.0913 10.7314C97.5589 10.7314 100.77 13.8378 100.77 18.1197V23.6608C100.77 28.6982 97.2799 32.0005 92.6726 32.0005ZM93.0074 20.5544C94.5155 20.5544 95.66 19.519 95.66 17.9798C95.66 16.4685 94.5155 15.461 93.0074 15.461C91.5273 15.461 90.3549 16.4685 90.3549 17.9798C90.3549 19.519 91.5273 20.5544 93.0074 20.5544Z" fill="#121212"/>
<path d="M76.8857 25.5634C72.5297 25.5634 69.2068 22.2051 69.2068 18.1193C69.2068 14.0614 72.5297 10.7031 76.8857 10.7031C81.2415 10.7031 84.5646 14.0614 84.5646 18.1193C84.5646 22.2051 81.2415 25.5634 76.8857 25.5634ZM76.8857 20.8338C78.4774 20.8338 79.5385 19.6025 79.5385 18.1473C79.5385 16.664 78.4774 15.4326 76.8857 15.4326C75.2941 15.4326 74.233 16.664 74.233 18.1473C74.233 19.6025 75.2941 20.8338 76.8857 20.8338Z" fill="#121212"/>
<path d="M60.054 6.25293V20.3856H68.3753V25.1432H59.3559C56.1727 25.1432 54.8882 23.464 54.8882 20.8054V6.25293H60.054Z" fill="#121212"/>
</g>
<defs>
<clipPath id="clip0_1861_1621">
<rect width="199" height="32" fill="white"/>
</clipPath>
</defs>
</svg>
